# xmcd
# 
# Track frame offsets:
#     150
#     13532
#     24060
#     37635
#     50800
#     67642
#     84930
#     95575
#     108310
#     122395
#     135342
#     150137
#     163077
#     174205
#     185025
#     203832
#     218902
#     230617
#     241705
#     253842
# 
# Disc length: 3643
# 
# Revision: 4
# Processed by: cddbd v1.5.2PL0 Copyright (c) Steve Scherf et al.
# Submitted via: fre:ac v1.0.31
# 
DISCID=e90e3914
DTITLE=Various Artist - The Winning Hand
DYEAR=1982
DGENRE=Country
TTITLE0=Brenda Lee and Willie Nelson - You're Gonna Love Yourself
TTITLE1=Dolly Parton and Kris Kristofferson - Ping Pong
TTITLE2=Willie Nelson - You'll Always Have Someone
TTITLE3=Kris Kristofferson - Here Comes That Rainbow Again
TTITLE4=Kris Kristofferson and Brenda Lee - The Bigger The Fool, The Harder The Fall
TTITLE5=Kris Kristofferson and Brenda Lee - Help Me Make It Through The Night
TTITLE6=Dolly Parton and Willie Nelson - Happy, Happy Birthday Baby
TTITLE7=Willie Nelson and Brenda Lee - You Left Me A Long, Long Time Ago
TTITLE8=Willie Nelson and Kris Kritofferson - To Make A Long Story Short, She's Gone
TTITLE9=Brenda Lee - Someone Loves You Honey
TTITLE10=Dolly Parton and Willie Nelson - Everybody's Beautiful
TTITLE11=Brenda Lee - Bring On The Sunshine
TTITLE12=Dolly Parton and Kris Kristofferson - Put It Off Until Tomorrow
TTITLE13=Willie Nelson - I Never Cared For You
TTITLE14=Kris Kristofferson and Willie Nelson - Casey's Last Ride
TTITLE15=Willie Nelson - King Of A Lonely Castle
TTITLE16=Dolly Parton - The Little Things
TTITLE17=Kris Kristofferson - The Bandits Of Beverly Hills
TTITLE18=Dolly Parton and Brenda Lee - What Do You Think About Lovin'
TTITLE19=Brenda Lee and Kris Kristofferson - Born To Love Me
EXTD=
EXTT0=
EXTT1=
EXTT2=
EXTT3=
EXTT4=
EXTT5=
EXTT6=
EXTT7=
EXTT8=
EXTT9=
EXTT10=
EXTT11=
EXTT12=
EXTT13=
EXTT14=
EXTT15=
EXTT16=
EXTT17=
EXTT18=
EXTT19=
PLAYORDER=
